<?xml version="1.0" standalone="no"?>
<!DOCTYPE svg PUBLIC "-//W3C//DTD SVG 20010904//EN"
 "http://www.w3.org/TR/2001/REC-SVG-20010904/DTD/svg10.dtd">
<svg version="1.0" xmlns="http://www.w3.org/2000/svg"
 width="1280.000000pt" height="1141.000000pt" viewBox="0 0 1280.000000 1141.000000"
 preserveAspectRatio="xMidYMid meet">
<g transform="translate(0.000000,1141.000000) scale(0.100000,-0.100000)"
fill="#000000" stroke="none">
<path d="M12510 11399 c-91 -4 -545 -12 -1010 -18 -465 -6 -1146 -16 -1515
-21 -368 -5 -1001 -14 -1405 -20 -1673 -23 -2198 -31 -2845 -40 -374 -6 -986
-14 -1360 -20 -1671 -24 -2119 -31 -2715 -40 -349 -5 -861 -13 -1136 -16
l-502 -7 -6 -386 c-3 -212 -9 -2727 -12 -5587 l-6 -5202 2668 -6 c3341 -8
9246 -28 9620 -33 l282 -4 6 293 c3 161 11 574 16 918 10 603 29 1619 50 2650
15 773 29 1459 40 2025 6 286 15 743 20 1015 5 272 14 729 20 1015 6 286 15
741 20 1010 5 270 16 846 25 1280 14 796 21 1013 32 1138 l6 67 -64 -1 c-35
-1 -138 -5 -229 -10z m-5746 -1579 c69 -8 113 -21 192 -55 57 -25 136 -52 176
-60 158 -33 236 -90 662 -483 103 -94 211 -190 241 -212 66 -49 101 -99 170
-243 68 -141 111 -273 125 -379 15 -124 9 -769 -15 -1534 l-5 -171 71 -6 c117
-10 113 3 106 -287 -8 -327 -48 -704 -87 -817 -10 -28 -52 -104 -93 -168 -86
-131 -108 -191 -162 -423 -56 -246 -83 -330 -145 -457 -60 -123 -141 -256
-182 -297 -16 -16 -24 -40 -30 -88 -9 -79 -8 -733 1 -775 4 -19 18 -37 39 -50
189 -115 193 -121 204 -298 9 -151 15 -174 79 -285 26 -46 53 -107 59 -135 7
-29 19 -64 26 -78 15 -30 87 -69 127 -69 50 0 133 -23 221 -62 48 -21 143 -59
209 -85 228 -86 698 -304 912 -422 122 -68 227 -111 497 -205 255 -88 393
-146 539 -227 70 -38 158 -81 195 -95 195 -73 455 -252 625 -432 79 -84 88
-98 161 -254 42 -91 84 -191 94 -222 16 -51 16 -58 3 -72 -14 -13 -201 -15
-1685 -15 -918 0 -2924 5 -4459 11 -1534 6 -3249 12 -3810 13 -810 2 -1025 5
-1043 15 -14 8 -22 22 -22 40 0 71 163 333 283 455 192 196 661 467 1528 883
381 182 601 281 681 305 40 12 181 64 313 116 132 52 319 124 415 160 244 91
307 124 327 171 8 20 37 129 64 242 58 245 82 326 120 401 51 101 88 132 196
159 52 13 78 39 92 93 12 47 27 297 35 575 l4 182 -86 103 c-113 135 -198 250
-227 307 -38 74 -64 174 -100 380 -43 244 -59 294 -146 451 -82 149 -113 236
-139 384 -42 248 -59 755 -28 827 20 45 62 68 123 68 l45 0 0 553 c0 962 30
1316 128 1512 110 222 288 446 485 613 291 247 689 418 1025 441 175 12 764
12 866 1z"/>
</g>
</svg>
